<svg width="124" height="148" viewBox="0 0 124 148" fill="none" xmlns="http://www.w3.org/2000/svg">
<g clip-path="url(#clip0_137_790)">
<path d="M15.9231 22.9231V97.3462C15.9231 101.294 17.4913 105.08 20.2827 107.871C23.0741 110.663 26.86 112.231 30.8077 112.231H45.6923M15.9231 22.9231H6M15.9231 22.9231H125.077M45.6923 112.231H95.3077M45.6923 112.231L39.0769 132.077M125.077 22.9231H135M125.077 22.9231V97.3462C125.077 101.294 123.509 105.08 120.717 107.871C117.926 110.663 114.14 112.231 110.192 112.231H95.3077M95.3077 112.231L101.923 132.077M39.0769 132.077H101.923M39.0769 132.077L35.7692 142M101.923 132.077L105.231 142M40.7308 82.4615L60.5769 62.6154L74.7868 76.8252C81.463 67.2415 90.1619 59.2404 100.269 53.3869" stroke="#7F99C3" stroke-width="9" stroke-linecap="round" stroke-linejoin="round"/>
</g>
<defs>
<clipPath id="clip0_137_790">
<rect width="124" height="148" fill="white"/>
</clipPath>
</defs>
</svg>
