<svg width="121" height="136" viewBox="0 0 121 136" fill="none" xmlns="http://www.w3.org/2000/svg">
<g clip-path="url(#clip0_47_310)">
<path d="M45.6251 5V15.75M18.7501 42.625H8.00012M137 42.625H126.25M18.7501 69.5H8.00012M137 69.5H126.25M18.7501 96.375H8.00012M137 96.375H126.25M45.6251 123.25V134M72.5001 5V15.75M72.5001 123.25V134M99.3751 5V15.75M99.3751 123.25V134M34.8751 123.25H110.125C114.402 123.25 118.503 121.551 121.527 118.527C124.551 115.503 126.25 111.402 126.25 107.125V31.875C126.25 27.5984 124.551 23.4969 121.527 20.4729C118.503 17.4489 114.402 15.75 110.125 15.75H34.8751C30.5985 15.75 26.4971 17.4489 23.473 20.4729C20.449 23.4969 18.7501 27.5984 18.7501 31.875V107.125C18.7501 111.402 20.449 115.503 23.473 118.527C26.4971 121.551 30.5985 123.25 34.8751 123.25ZM40.2501 37.25H104.75V101.75H40.2501V37.25Z" stroke="#7F99C3" stroke-width="7" stroke-linecap="round" stroke-linejoin="round"/>
</g>
<defs>
<clipPath id="clip0_47_310">
<rect width="121" height="136" fill="white"/>
</clipPath>
</defs>
</svg>
