<svg width="127" height="136" viewBox="0 0 127 136" fill="none" xmlns="http://www.w3.org/2000/svg">
<g clip-path="url(#clip0_46_167)">
<path d="M64.654 9.96154H50.841C47.6587 9.96212 44.5603 10.9826 42.0005 12.8733C39.4407 14.764 37.5543 17.4253 36.618 20.4668L20.6617 72.3248C20.2246 73.7413 20.0017 75.2151 20.0001 76.6975V104.231C20.0001 108.178 21.5683 111.964 24.3597 114.756C27.1511 117.547 30.9371 119.115 34.8847 119.115H134.116C138.063 119.115 141.849 117.547 144.641 114.756C147.432 111.964 149 108.178 149 104.231V76.6975C149 75.2157 148.775 73.7405 148.339 72.3248L132.396 20.4668C131.459 17.4253 129.573 14.764 127.013 12.8733C124.453 10.9826 121.355 9.96212 118.172 9.96154H104.346M20.0001 74.4615H45.5355C48.2994 74.4622 51.0085 75.2325 53.3593 76.686C55.7102 78.1395 57.6099 80.2188 58.8457 82.6911L60.5392 86.0782C61.7755 88.5514 63.6762 90.6314 66.0283 92.085C68.3804 93.5385 71.091 94.3082 73.856 94.3077H95.1443C97.9093 94.3082 100.62 93.5385 102.972 92.085C105.324 90.6314 107.225 88.5514 108.461 86.0782L110.155 82.6911C111.391 80.2178 113.292 78.1378 115.644 76.6843C117.996 75.2307 120.706 74.461 123.471 74.4615H149M84.5001 5V59.5769M84.5001 59.5769L64.654 39.7308M84.5001 59.5769L104.346 39.7308" stroke="#7F99C3" stroke-width="8" stroke-linecap="round" stroke-linejoin="round"/>
</g>
<defs>
<clipPath id="clip0_46_167">
<rect width="127" height="136" fill="white"/>
</clipPath>
</defs>
</svg>
