<svg xmlns="http://www.w3.org/2000/svg" width="112" height="126" viewBox="0 0 112 126" fill="none">
  <path d="M53.3698 0.704671C65.88 2.6422 82.0189 15.8719 82.0189 15.8719L68.537 27.6685C68.537 27.6685 61.0347 20.9137 55.0551 19.2424C49.3506 17.6479 45.563 17.5461 39.8879 19.2424C31.4045 21.778 26.0396 25.5513 23.0355 34.4095C20.2877 42.5119 19.8074 48.3943 23.0355 56.3177C26.7269 65.3783 41.5731 71.4849 41.5731 71.4849C41.5731 71.4849 49.0157 72.99 53.3698 71.4849C59.9819 69.1992 69.5482 64.0698 66.8518 61.3734C64.1554 58.677 56.7403 47.8915 56.7403 47.8915C56.7403 47.8915 71.012 36.4153 82.0189 34.4095C88.4936 33.2296 92.4116 33.1504 98.8714 34.4095C118.99 38.331 131.012 52.9321 134.261 73.1701C135.201 79.0183 135.291 82.5042 134.261 88.3373C130.865 107.585 117.951 119.487 98.8714 123.727C91.1619 125.441 86.3579 125.441 78.6485 123.727C67.4101 121.23 53.3698 108.56 53.3698 108.56L68.537 95.0782C68.537 95.0782 75.7754 103.109 82.0189 105.19C88.2625 107.271 92.664 107.377 98.8714 105.19C109.052 101.603 113.885 93.9178 115.724 83.2815C116.397 79.3905 116.508 77.0402 115.724 73.1701C113.412 61.7585 105.215 55.3174 93.8156 52.9472C89.3052 52.0094 86.4674 51.7495 82.0189 52.9472C75.664 54.6581 68.537 63.0586 68.537 63.0586L82.0189 78.2258C82.0189 78.2258 69.3039 86.2688 60.1108 88.3373C50.4797 90.5043 44.3481 90.9644 34.8322 88.3373C16.4347 83.2582 4.96421 71.6432 1.12733 52.9472C-0.328039 45.8556 -0.422767 41.481 1.12733 34.4095C5.31711 15.2958 18.9004 3.91577 38.2027 0.704671C44.0455 -0.267338 47.5165 -0.201873 53.3698 0.704671Z" fill="#7F99C3"/>
</svg>